# xmcd
#
# Track frame offsets:
#	150
#	20059
#	35361
#	49436
#	70028
#	89766
#	114106
#	143446
#	164192
#	187555
#	212475
#
# Disc length: 3163 seconds
#
# Revision: 0
# Processed by: cddbd v1.5.2PL0 Copyright (c) Steve Scherf et al.
# Submitted via: dBpowerAMP V4.0
#
DISCID=920c590b
DTITLE=Jumpin' Jack Benny - I'll Be Alright
DYEAR=1900
DGENRE=
TTITLE0=I Don't Believe
TTITLE1=Tell Me Please
TTITLE2=Let Your Love Go
TTITLE3=I'll Be Alright
TTITLE4=Mean Woman Blues
TTITLE5=Find A Fool
TTITLE6=Big Woman Blues
TTITLE7=Take Time Out To Hear Me Some Blues
TTITLE8=Party's On
TTITLE9=One More Song (Live)
TTITLE10=You Got Yours I Got Mine (Live)
EXTD=
EXTT0=
EXTT1=
EXTT2=
EXTT3=
EXTT4=
EXTT5=
EXTT6=
EXTT7=
EXTT8=
EXTT9=
EXTT10=
PLAYORDER=
